<svg width="228" height="28" viewBox="0 0 228 28" fill="none" xmlns="http://www.w3.org/2000/svg">
<path d="M0.981534 27V0.818181H11.7969C13.7571 0.818181 15.4489 1.2017 16.8722 1.96875C18.304 2.72727 19.4077 3.78835 20.1832 5.15199C20.9588 6.5071 21.3466 8.08381 21.3466 9.8821C21.3466 11.6889 20.9503 13.2699 20.1577 14.625C19.3736 15.9716 18.2528 17.0156 16.7955 17.7571C15.3381 18.4986 13.608 18.8693 11.6051 18.8693H4.93182V13.8835H10.429C11.3835 13.8835 12.1804 13.7173 12.8196 13.3849C13.4673 13.0526 13.9574 12.5881 14.2898 11.9915C14.6222 11.3864 14.7884 10.6832 14.7884 9.8821C14.7884 9.07244 14.6222 8.37358 14.2898 7.78551C13.9574 7.18892 13.4673 6.72869 12.8196 6.40483C12.1719 6.08097 11.375 5.91903 10.429 5.91903H7.30966V27H0.981534ZM38.6179 8.66761C38.5327 7.73011 38.1534 7.00142 37.4801 6.48153C36.8153 5.95313 35.8651 5.68892 34.6293 5.68892C33.8111 5.68892 33.1293 5.79545 32.5838 6.00852C32.0384 6.22159 31.6293 6.51563 31.3565 6.89062C31.0838 7.2571 30.9432 7.67898 30.9347 8.15625C30.9176 8.54829 30.9943 8.89346 31.1648 9.19176C31.3438 9.49006 31.5994 9.75426 31.9318 9.98438C32.2727 10.206 32.6818 10.402 33.1591 10.5724C33.6364 10.7429 34.1733 10.892 34.7699 11.0199L37.0199 11.5312C38.3153 11.8125 39.4574 12.1875 40.446 12.6562C41.4432 13.125 42.2784 13.6832 42.9517 14.331C43.6335 14.9787 44.1491 15.7244 44.4986 16.5682C44.848 17.4119 45.027 18.358 45.0355 19.4062C45.027 21.0597 44.6094 22.4787 43.7827 23.6634C42.956 24.848 41.767 25.7557 40.2159 26.3864C38.6733 27.017 36.8111 27.3324 34.6293 27.3324C32.4389 27.3324 30.5298 27.0043 28.902 26.348C27.2741 25.6918 26.0085 24.6946 25.1051 23.3565C24.2017 22.0185 23.7372 20.3267 23.7116 18.2812H29.7713C29.8224 19.125 30.0483 19.8281 30.4489 20.3906C30.8494 20.9531 31.3991 21.3793 32.098 21.669C32.8054 21.9588 33.6236 22.1037 34.5526 22.1037C35.4048 22.1037 36.1293 21.9886 36.7259 21.7585C37.331 21.5284 37.7955 21.2088 38.1193 20.7997C38.4432 20.3906 38.6094 19.9219 38.6179 19.3935C38.6094 18.8991 38.456 18.4773 38.1577 18.1278C37.8594 17.7699 37.3991 17.4631 36.777 17.2074C36.1634 16.9432 35.3793 16.7003 34.4247 16.4787L31.6889 15.8395C29.4219 15.3196 27.6364 14.4801 26.3324 13.321C25.0284 12.1534 24.3807 10.5767 24.3892 8.59091C24.3807 6.97159 24.8153 5.55256 25.6932 4.33381C26.571 3.11506 27.7855 2.16477 29.3366 1.48295C30.8878 0.801136 32.6563 0.460226 34.642 0.460226C36.6705 0.460226 38.4304 0.805397 39.9219 1.49574C41.4219 2.17756 42.5852 3.13636 43.4119 4.37216C44.2386 5.60795 44.6605 7.03977 44.6776 8.66761H38.6179ZM46.9276 0.818181H53.9972L59.5327 11.7741H59.7628L65.2983 0.818181H72.3679L62.7926 18.2557V27H56.5028V18.2557L46.9276 0.818181ZM97.0636 10.304H90.6715C90.5863 9.64773 90.4116 9.0554 90.1474 8.52699C89.8832 7.99858 89.5337 7.54687 89.0991 7.17188C88.6644 6.79688 88.1488 6.51136 87.5522 6.31534C86.9641 6.11079 86.3121 6.00852 85.5962 6.00852C84.3263 6.00852 83.2312 6.3196 82.3107 6.94176C81.3988 7.56392 80.6957 8.46307 80.2013 9.6392C79.7156 10.8153 79.4727 12.2386 79.4727 13.9091C79.4727 15.6477 79.7198 17.1051 80.2141 18.2812C80.717 19.4489 81.4201 20.331 82.3235 20.9276C83.2354 21.5156 84.3136 21.8097 85.5579 21.8097C86.2567 21.8097 86.8917 21.7202 87.4627 21.5412C88.0423 21.3622 88.5494 21.1023 88.984 20.7614C89.4272 20.4119 89.7894 19.9901 90.0707 19.4957C90.3604 18.9929 90.5607 18.4261 90.6715 17.7955L97.0636 17.8338C96.9528 18.9929 96.6161 20.1349 96.0536 21.2599C95.4996 22.3849 94.7369 23.4119 93.7653 24.3409C92.7937 25.2614 91.609 25.9943 90.2113 26.5398C88.8221 27.0852 87.2283 27.358 85.43 27.358C83.0607 27.358 80.9386 26.8381 79.0636 25.7983C77.1971 24.75 75.7227 23.2244 74.6403 21.2216C73.5579 19.2187 73.0167 16.7812 73.0167 13.9091C73.0167 11.0284 73.5664 8.58665 74.6658 6.58381C75.7653 4.58097 77.2525 3.05966 79.1275 2.01989C81.0025 0.980113 83.1033 0.460226 85.43 0.460226C87.0153 0.460226 88.4812 0.681818 89.8278 1.125C91.1744 1.55966 92.359 2.19886 93.3817 3.04261C94.4045 3.87784 95.2354 4.90483 95.8746 6.12358C96.5138 7.34233 96.9102 8.7358 97.0636 10.304ZM100.685 27V0.818181H107.013V11.3267H117.33V0.818181H123.645V27H117.33V16.4787H107.013V27H100.685ZM152.326 13.9091C152.326 16.7898 151.772 19.2315 150.664 21.2344C149.556 23.2372 148.056 24.7585 146.164 25.7983C144.281 26.8381 142.167 27.358 139.823 27.358C137.471 27.358 135.353 26.8338 133.469 25.7855C131.586 24.7372 130.09 23.2159 128.982 21.2216C127.883 19.2187 127.333 16.7812 127.333 13.9091C127.333 11.0284 127.883 8.58665 128.982 6.58381C130.09 4.58097 131.586 3.05966 133.469 2.01989C135.353 0.980113 137.471 0.460226 139.823 0.460226C142.167 0.460226 144.281 0.980113 146.164 2.01989C148.056 3.05966 149.556 4.58097 150.664 6.58381C151.772 8.58665 152.326 11.0284 152.326 13.9091ZM145.857 13.9091C145.857 12.2045 145.614 10.7642 145.129 9.58807C144.651 8.41193 143.961 7.52131 143.058 6.91619C142.163 6.31108 141.085 6.00852 139.823 6.00852C138.57 6.00852 137.492 6.31108 136.589 6.91619C135.685 7.52131 134.991 8.41193 134.505 9.58807C134.028 10.7642 133.789 12.2045 133.789 13.9091C133.789 15.6136 134.028 17.054 134.505 18.2301C134.991 19.4062 135.685 20.2969 136.589 20.902C137.492 21.5071 138.57 21.8097 139.823 21.8097C141.085 21.8097 142.163 21.5071 143.058 20.902C143.961 20.2969 144.651 19.4062 145.129 18.2301C145.614 17.054 145.857 15.6136 145.857 13.9091ZM156.021 27V0.818181H162.349V21.8608H173.241V27H156.021ZM200.209 13.9091C200.209 16.7898 199.655 19.2315 198.547 21.2344C197.439 23.2372 195.939 24.7585 194.047 25.7983C192.163 26.8381 190.05 27.358 187.706 27.358C185.354 27.358 183.236 26.8338 181.352 25.7855C179.469 24.7372 177.973 23.2159 176.865 21.2216C175.766 19.2187 175.216 16.7812 175.216 13.9091C175.216 11.0284 175.766 8.58665 176.865 6.58381C177.973 4.58097 179.469 3.05966 181.352 2.01989C183.236 0.980113 185.354 0.460226 187.706 0.460226C190.05 0.460226 192.163 0.980113 194.047 2.01989C195.939 3.05966 197.439 4.58097 198.547 6.58381C199.655 8.58665 200.209 11.0284 200.209 13.9091ZM193.74 13.9091C193.74 12.2045 193.497 10.7642 193.011 9.58807C192.534 8.41193 191.844 7.52131 190.94 6.91619C190.045 6.31108 188.967 6.00852 187.706 6.00852C186.453 6.00852 185.375 6.31108 184.472 6.91619C183.568 7.52131 182.874 8.41193 182.388 9.58807C181.911 10.7642 181.672 12.2045 181.672 13.9091C181.672 15.6136 181.911 17.054 182.388 18.2301C182.874 19.4062 183.568 20.2969 184.472 20.902C185.375 21.5071 186.453 21.8097 187.706 21.8097C188.967 21.8097 190.045 21.5071 190.94 20.902C191.844 20.2969 192.534 19.4062 193.011 18.2301C193.497 17.054 193.74 15.6136 193.74 13.9091ZM221.085 9.37074C220.94 8.83381 220.727 8.3608 220.446 7.9517C220.165 7.53409 219.82 7.1804 219.411 6.89062C219.001 6.60085 218.533 6.38352 218.004 6.23864C217.476 6.08523 216.896 6.00852 216.266 6.00852C214.996 6.00852 213.896 6.31534 212.967 6.92898C212.047 7.54261 211.335 8.4375 210.832 9.61364C210.33 10.7812 210.078 12.2003 210.078 13.8707C210.078 15.5497 210.321 16.9815 210.807 18.1662C211.293 19.3509 211.996 20.2543 212.916 20.8764C213.837 21.4986 214.953 21.8097 216.266 21.8097C217.425 21.8097 218.405 21.6222 219.206 21.2472C220.016 20.8636 220.629 20.3224 221.047 19.6236C221.464 18.9247 221.673 18.1023 221.673 17.1562L222.849 17.2969H216.483V12.6818H227.771V16.1463C227.771 18.4901 227.273 20.4972 226.276 22.1676C225.287 23.8381 223.923 25.1207 222.185 26.0156C220.455 26.9105 218.464 27.358 216.214 27.358C213.717 27.358 211.523 26.8168 209.631 25.7344C207.739 24.652 206.264 23.1094 205.207 21.1065C204.151 19.0952 203.622 16.7088 203.622 13.9474C203.622 11.7997 203.942 9.89489 204.581 8.23295C205.22 6.5625 206.111 5.14773 207.253 3.98864C208.403 2.82955 209.733 1.9517 211.241 1.35511C212.759 0.758522 214.391 0.460226 216.138 0.460226C217.655 0.460226 219.065 0.677556 220.369 1.11222C221.682 1.54688 222.841 2.16051 223.847 2.95312C224.861 3.74574 225.683 4.6875 226.314 5.77841C226.945 6.86932 227.337 8.06676 227.49 9.37074H221.085Z" fill="#42B2FC"/>
</svg>
